<?xml version="1.0" encoding="UTF-8"?>
<!DOCTYPE svg PUBLIC "-//W3C//DTD SVG 1.1//EN" "http://www.w3.org/Graphics/SVG/1.1/DTD/svg11.dtd">
<!-- Creator: CorelDRAW -->
<svg xmlns="http://www.w3.org/2000/svg" xml:space="preserve" width="2.34757in" height="0.705685in" version="1.1" style="shape-rendering:geometricPrecision; text-rendering:geometricPrecision; image-rendering:optimizeQuality; fill-rule:evenodd; clip-rule:evenodd"
viewBox="0 0 255.39 76.77"
 xmlns:xlink="http://www.w3.org/1999/xlink"
 xmlns:xodm="http://www.corel.com/coreldraw/odm/2003">
 <defs>
  <style type="text/css">
   <![CDATA[
    .str0 {stroke:#FEFEFE;stroke-width:0.76;stroke-miterlimit:2.61313}
    .fil2 {fill:#FEFEFE;fill-rule:nonzero}
    .fil1 {fill:#111829;fill-rule:nonzero}
    .fil0 {fill:#111829;fill-rule:nonzero}
    .fil3 {fill:#6C56A4;fill-rule:nonzero}
   ]]>
  </style>
 </defs>
 <g id="Layer_x0020_1">
  <metadata id="CorelCorpID_0Corel-Layer"/>
  <g id="_2742418957680">
   <g>
    <path class="fil0" d="M92.48 61.04l0 -44.24 15.8 0c5.1,0 9.31,0.97 12.67,2.9 3.35,1.94 5.86,4.57 7.52,7.9 1.67,3.33 2.49,7.12 2.49,11.38 0,4.26 -0.84,7.99 -2.49,11.31 -1.67,3.33 -4.17,5.95 -7.52,7.86 -3.34,1.91 -7.57,2.88 -12.67,2.88l-15.8 0 0 0.01zm14.73 -36.27l-5.88 0 0 28.31 5.88 0c3.5,0 6.32,-0.62 8.46,-1.87 2.15,-1.25 3.71,-2.92 4.68,-5.05 0.96,-2.13 1.45,-4.52 1.45,-7.17 0,-2.65 -0.49,-5.11 -1.45,-7.23 -0.97,-2.13 -2.53,-3.82 -4.68,-5.09 -2.15,-1.27 -4.97,-1.89 -8.46,-1.89z"/>
    <path class="fil0" d="M149.42 61.86c-2.99,0 -5.72,-0.77 -8.18,-2.31 -2.46,-1.54 -4.42,-3.6 -5.88,-6.19 -1.45,-2.6 -2.18,-5.46 -2.18,-8.62 0,-2.36 0.42,-4.58 1.27,-6.66 0.84,-2.08 2.01,-3.92 3.48,-5.5 1.47,-1.58 3.2,-2.82 5.14,-3.73 1.96,-0.91 4.08,-1.36 6.35,-1.36 2.87,0 5.1,0.53 6.7,1.61 1.6,1.08 2.84,2.49 3.73,4.26l0 -5.18 8.46 0 0 32.86 -8.27 0 0 -5.37c-0.88,1.86 -2.14,3.35 -3.76,4.49 -1.62,1.13 -3.91,1.71 -6.86,1.71l-0 -0.01zm1.38 -7.71c1.89,0 3.52,-0.43 4.9,-1.29 1.37,-0.86 2.44,-2.01 3.2,-3.44 0.76,-1.43 1.13,-2.99 1.13,-4.68 0,-1.69 -0.37,-3.31 -1.13,-4.74 -0.76,-1.43 -1.82,-2.6 -3.2,-3.48 -1.37,-0.88 -3,-1.33 -4.9,-1.33 -1.89,0 -3.4,0.43 -4.77,1.29 -1.37,0.86 -2.44,2.02 -3.2,3.44 -0.76,1.43 -1.13,3.01 -1.13,4.74 0,1.72 0.37,3.2 1.13,4.65 0.76,1.45 1.82,2.62 3.2,3.5 1.37,0.88 2.96,1.33 4.77,1.33l0 0.01z"/>
    <path class="fil0" d="M177.6 25.46c-1.43,0 -2.64,-0.5 -3.64,-1.48 -0.99,-0.99 -1.48,-2.18 -1.48,-3.57 0,-1.39 0.5,-2.52 1.48,-3.5 0.99,-0.99 2.2,-1.48 3.64,-1.48 1.44,0 2.7,0.5 3.66,1.48 0.96,0.99 1.45,2.16 1.45,3.5 0,1.43 -0.49,2.63 -1.45,3.6 -0.97,0.97 -2.19,1.45 -3.66,1.45l0 -0zm-4.24 35.58l0 -32.86 8.53 0 0 32.86 -8.53 0z"/>
    <polygon class="fil0" points="186.95,61.04 186.95,14.91 195.49,14.91 195.49,61.04 "/>
    <path class="fil0" d="M215.14 25.46c-1.43,0 -2.64,-0.5 -3.64,-1.48 -0.99,-0.99 -1.48,-2.18 -1.48,-3.57 0,-1.39 0.5,-2.52 1.48,-3.5 0.99,-0.99 2.2,-1.48 3.64,-1.48 1.44,0 2.7,0.5 3.66,1.48 0.96,0.99 1.45,2.16 1.45,3.5 0,1.43 -0.49,2.63 -1.45,3.6 -0.97,0.97 -2.19,1.45 -3.66,1.45l0 -0zm-4.24 35.58l0 -32.86 8.53 0 0 32.86 -8.53 0z"/>
    <path class="fil0" d="M236.94 61.04c-3.24,0 -5.73,-0.8 -7.46,-2.4 -1.72,-1.6 -2.6,-4.19 -2.6,-7.77l0 -15.42 -4.61 0 0 -7.26 4.61 0 0 -6.63 8.53 -0.88 0 7.52 6.95 0 0 7.26 -6.95 0 0 14.98c0,2.02 0.88,3.04 2.65,3.04l3.54 -0 0 7.58 -4.68 0 0.01 -0.01z"/>
    <path class="fil0" d="M249.77 61.86c-1.64,0 -3,-0.54 -4.08,-1.64 -1.08,-1.1 -1.61,-2.4 -1.61,-3.92 0,-1.52 0.53,-2.75 1.61,-3.85 1.08,-1.1 2.44,-1.64 4.08,-1.64 1.64,0 2.99,0.54 4.05,1.64 1.05,1.1 1.58,2.38 1.58,3.85 0,1.47 -0.53,2.82 -1.58,3.92 -1.05,1.1 -2.4,1.64 -4.05,1.64z"/>
   </g>
   <path class="fil1" d="M13.55 -0l49.67 0c7.48,0 13.55,6.07 13.55,13.55l-0 49.67c0,7.48 -6.07,13.55 -13.55,13.55l-49.67 0c-7.48,-0 -13.55,-6.07 -13.55,-13.55l-0 -49.67c0,-7.48 6.07,-13.55 13.55,-13.55z"/>
   <path class="fil2" d="M26.63 51.59l0 -29.38 10.5 0c3.39,0 6.19,0.65 8.42,1.93 2.23,1.29 3.89,3.03 5,5.25 1.11,2.21 1.66,4.73 1.66,7.56 0,2.83 -0.56,5.31 -1.66,7.51 -1.11,2.21 -2.77,3.95 -5,5.23 -2.23,1.27 -5.03,1.91 -8.42,1.91l-10.5 0zm9.78 -24.1l-3.91 0 0 18.81 3.91 -0c2.33,0 4.2,-0.41 5.62,-1.24 1.43,-0.83 2.46,-1.94 3.11,-3.36 0.65,-1.42 0.96,-3 0.96,-4.77 0,-1.76 -0.32,-3.4 -0.96,-4.8 -0.65,-1.42 -1.68,-2.54 -3.11,-3.38 -1.43,-0.84 -3.3,-1.26 -5.62,-1.26l0 0z"/>
   <circle class="fil3 str0" cx="59.43" cy="14.61" r="5.99"/>
  </g>
 </g>
</svg>
